<?xml version="1.0" encoding="UTF-8"?>
<!DOCTYPE svg PUBLIC "-//W3C//DTD SVG 1.1//EN" "http://www.w3.org/Graphics/SVG/1.1/DTD/svg11.dtd">
<!-- Creator: CorelDRAW 2018 (64 Bit Versão de avaliação) -->
<svg xmlns="http://www.w3.org/2000/svg" xml:space="preserve" width="109.919mm" height="29.961mm" version="1.1" style="shape-rendering:geometricPrecision; text-rendering:geometricPrecision; image-rendering:optimizeQuality; fill-rule:evenodd; clip-rule:evenodd"
viewBox="0 0 12055.69 3286.06"
 xmlns:xlink="http://www.w3.org/1999/xlink">
 <defs>
  <style type="text/css">
   <![CDATA[
    .fil2 {fill:#201E1E}
    .fil0 {fill:#201E1E;fill-rule:nonzero}
    .fil1 {fill:url(#id0);fill-rule:nonzero}
   ]]>
  </style>
  <linearGradient id="id0" gradientUnits="userSpaceOnUse" x1="11490.69" y1="3189.17" x2="11961.65" y2="2737.45">
   <stop offset="0" style="stop-opacity:1; stop-color:#FF9048"/>
   <stop offset="1" style="stop-opacity:1; stop-color:#E24577"/>
  </linearGradient>
 </defs>
 <g id="Camada_x0020_1">
  <metadata id="CorelCorpID_0Corel-Layer"/>
  <path class="fil0" d="M1132.97 1290.95c-72.22,-27.08 -159.49,-40.62 -261.8,-40.62 -102.32,0 -184.31,23.33 -246.01,69.96 -61.68,46.65 -92.54,103.82 -92.54,171.53 0,67.72 11.29,120.37 33.86,157.99 22.57,37.61 57.93,69.96 106.08,97.04 75.23,39.12 165.5,72.97 270.83,101.56 105.32,28.58 183.56,51.15 234.71,67.7 51.16,16.55 115.11,44.39 191.84,83.51 76.74,39.12 134.66,81.25 173.78,126.38 105.32,111.35 157.98,254.29 157.98,428.82 0,225.68 -82,402.49 -246,530.37 -164,127.9 -372.39,191.84 -625.16,191.84 -367.12,0 -643.97,-46.65 -830.55,-139.93l0 -627.42 406.25 -31.6 0 216.67c0,132.4 126.38,198.6 379.16,198.6 252.77,0 379.17,-91.78 379.17,-275.34 0,-66.21 -21.81,-120.37 -65.46,-162.5 -43.63,-42.13 -86.51,-70.72 -128.64,-85.77 -42.13,-15.05 -92.54,-30.08 -151.21,-45.13 -58.68,-15.05 -115.85,-30.1 -171.53,-45.14 -55.67,-15.05 -115.85,-35.36 -180.55,-60.94 -64.7,-25.58 -136.17,-62.44 -214.41,-110.59 -153.47,-99.3 -230.2,-265.56 -230.2,-498.77 0,-233.22 82.75,-413.01 248.26,-539.41 165.51,-126.38 373.9,-189.58 625.16,-189.58 251.27,0 500.28,60.18 747.04,180.55l0 541.66 -406.24 31.6 0 -189.58c0,-75.23 -34.61,-126.38 -103.82,-153.47z"/>
  <path class="fil0" d="M2394.16 460.79l293.4 0 0 478.46 600.34 0 -45.14 379.17 -555.2 0 0 1187.13c0,132.4 24.07,224.94 72.22,277.59 48.15,52.67 122.63,78.99 223.44,78.99 100.8,0 202.37,-31.59 304.69,-94.78l135.41 347.56c-150.46,105.32 -341.54,157.99 -573.25,157.99 -135.41,0 -249.76,-17.31 -343.05,-51.91 -93.28,-34.6 -162.5,-72.98 -207.63,-115.11 -45.14,-42.13 -79.75,-103.81 -103.82,-185.06 -24.07,-81.25 -37.61,-145.2 -40.62,-191.84 -3.01,-46.65 -4.51,-115.11 -4.51,-205.38l0 -1205.18 -320.49 0 45.14 -329.52c141.43,-12.03 248.26,-62.44 320.48,-151.21 72.22,-88.76 138.42,-214.4 198.6,-376.9z"/>
  <path class="fil0" d="M4366.59 2888.85c328,0 492,-264.82 492,-794.43 0,-267.82 -36.86,-470.95 -110.59,-609.37 -73.73,-138.42 -197.1,-207.63 -370.13,-207.63 -173.03,0 -300.17,66.2 -381.42,198.6 -81.25,132.4 -121.87,312.95 -121.87,541.66 0,424.3 78.24,690.62 234.72,798.95 69.21,48.15 154.97,72.22 257.28,72.22zm-1038.18 -807.98c0,-222.68 33.1,-416.02 99.3,-580.03 66.2,-164 154.97,-289.63 266.32,-376.9 213.65,-162.5 449.88,-243.75 708.67,-243.75 180.55,0 333.27,29.34 458.15,88.02 124.88,58.69 222.68,126.39 293.4,203.12 70.72,76.74 130.9,188.08 180.55,334.02 49.65,145.95 74.48,318.22 74.48,516.84 0,415.27 -100.82,729.73 -302.43,943.38 -201.62,213.65 -459.66,320.48 -774.12,320.48 -314.47,0 -560.48,-101.56 -738.01,-304.67 -177.55,-203.12 -266.32,-503.3 -266.32,-900.51z"/>
  <path class="fil0" d="M5665.45 2712.81l0 -2198.23c0,-48.15 -8.27,-81.25 -24.82,-99.3 -16.55,-18.05 -45.89,-28.58 -88.02,-31.6l-157.99 -9.03 0 -374.65 803.47 0 0 1954.48c165.5,-15.04 309.94,-66.2 433.33,-153.46 123.38,-87.27 207.63,-201.62 252.76,-343.05 9.04,-30.1 13.55,-54.17 13.55,-72.22 0,-51.15 -28.58,-76.73 -85.76,-76.73l-171.53 -9.04 0 -352.08 934.36 0 0 365.62 -216.67 9.03c-39.11,306.94 -171.53,549.18 -397.21,726.73l442.35 794.43 275.35 13.55 0 361.1 -659.02 0 -514.58 -938.88c-99.3,27.08 -201.62,48.15 -306.93,63.2l0 501.03 4.51 0 257.29 13.55 0 361.1 -1074.3 0 0 -343.05 148.95 -13.55c45.14,-6.01 78.24,-18.8 99.31,-38.37 21.06,-19.56 31.59,-56.42 31.59,-110.59z"/>
  <path class="fil0" d="M8751.14 880.2c225.68,0 404.73,54.92 537.14,164.76 132.41,109.83 198.62,264.06 198.62,462.67 0,132.4 -28.59,249.01 -85.77,349.82 -57.18,100.8 -127.88,179.81 -212.15,236.98 -84.25,57.18 -186.57,103.81 -306.93,139.93 -201.62,60.18 -428.82,90.28 -681.59,90.28 9.04,159.48 58.69,288.12 148.96,385.92 90.28,97.8 228.7,146.71 415.26,146.71 186.57,0 373.15,-66.2 559.72,-198.6l171.53 365.61c-60.19,54.17 -161.74,109.84 -304.69,167.02 -142.93,57.18 -306.19,85.76 -489.74,85.76 -367.12,0 -636.45,-101.56 -807.98,-304.69 -171.53,-203.11 -257.29,-482.22 -257.29,-837.3 0,-355.09 97.8,-653 293.4,-893.74 195.6,-240.73 469.44,-361.1 821.52,-361.1zm-205.38 1031.41c109.84,-19.57 211.4,-63.2 304.69,-130.9 93.28,-67.72 139.93,-148.21 139.93,-241.49 0,-183.57 -90.28,-275.35 -270.83,-275.35 -168.52,0 -297.92,66.96 -388.19,200.86 -90.28,133.91 -139.93,294.16 -148.95,480.72 132.4,-3.01 253.53,-14.29 363.36,-33.85z"/>
  <path class="fil0" d="M10727.94 1290.95c-72.22,-27.08 -159.49,-40.62 -261.8,-40.62 -102.32,0 -184.31,23.33 -246.01,69.96 -61.68,46.65 -92.54,103.82 -92.54,171.53 0,67.72 11.29,120.37 33.86,157.99 22.57,37.61 57.93,69.96 106.08,97.04 75.23,39.12 165.5,72.97 270.83,101.56 105.32,28.58 183.56,51.15 234.71,67.7 51.16,16.55 115.11,44.39 191.84,83.51 76.74,39.12 134.66,81.25 173.78,126.38 105.32,111.35 157.98,254.29 157.98,428.82 0,225.68 -82,402.49 -246,530.37 -164,127.9 -372.39,191.84 -625.16,191.84 -367.12,0 -643.97,-46.65 -830.55,-139.93l0 -627.42 406.25 -31.6 0 216.67c0,132.4 126.38,198.6 379.16,198.6 252.77,0 379.17,-91.78 379.17,-275.34 0,-66.21 -21.81,-120.37 -65.46,-162.5 -43.63,-42.13 -86.51,-70.72 -128.64,-85.77 -42.13,-15.05 -92.54,-30.08 -151.21,-45.13 -58.68,-15.05 -115.85,-30.1 -171.53,-45.14 -55.67,-15.05 -115.85,-35.36 -180.55,-60.94 -64.7,-25.58 -136.17,-62.44 -214.41,-110.59 -153.47,-99.3 -230.2,-265.56 -230.2,-498.77 0,-233.22 82.75,-413.01 248.26,-539.41 165.51,-126.38 373.9,-189.58 625.16,-189.58 251.27,0 500.28,60.18 747.04,180.55l0 541.66 -406.24 31.6 0 -189.58c0,-75.23 -34.61,-126.38 -103.82,-153.47z"/>
  <path class="fil1" d="M11726.17 3286.06c-105.32,0 -186.58,-29.33 -243.76,-88.02 -57.18,-58.68 -85.77,-135.42 -85.77,-230.2 0,-94.79 29.35,-173.04 88.02,-234.73 58.7,-61.69 138.44,-92.54 239.25,-92.54 100.8,0 181.32,29.33 241.49,88.02 60.19,58.68 90.29,135.42 90.29,230.22 0,94.78 -28.58,173.03 -85.76,234.71 -57.19,61.69 -138.44,92.54 -243.76,92.54z"/>
  <polygon class="fil2" points="3779.24,0 4958.45,0 4958.45,351.91 3779.24,351.91 "/>
 </g>
</svg>
